<svg xmlns="http://www.w3.org/2000/svg" viewBox="0 0 562.91 145.21"><defs><style>.cls-1{fill:#fc8303;}.cls-2{fill:#45a8e8;}.cls-3{fill:#2c8edb;}</style></defs><g id="Layer_2" data-name="Layer 2"><g id="Layer_1-2" data-name="Layer 1"><path class="cls-1" d="M105.76,39.9c0-5.28,3.19-8,8-8s8,2.75,8,8v66c0,5.28-3.19,8-8,8s-8-2.75-8-8Z"/><path class="cls-1" d="M188.26,97c0,6.71,1.65,8.25,1.65,10.78,0,3.63-3.41,6.16-7.26,6.16-6.93,0-9.24-4.4-9.46-9.35-6.27,6.93-13.53,9.35-22,9.35-9.13,0-18.15-6.27-18.15-16.39,0-13.31,10.12-17.05,22.44-18.48l9.79-1.1c3.85-.44,6.93-1.32,6.93-5.94s-4.73-6.6-10.12-6.6c-11.88,0-12.21,8.8-18.59,8.8-4.07,0-6.82-2.86-6.82-6.16,0-6.38,9-14.52,25.52-14.52,15.4,0,26.07,5,26.07,16.5ZM172.2,85.44c-1.76,1.65-5.06,2.2-6.93,2.53l-5.83.88c-6.71,1-10.34,3.08-10.34,7.92,0,3.63,3.41,6.6,8.91,6.6,8.8,0,14.19-5.72,14.19-11.66Z"/><path class="cls-1" d="M201.57,61.57c0-4.84,2.2-8,7.26-8s7.26,3.19,7.26,8v2.09h.22c4.51-5.94,10.34-10.12,19.47-10.12,9.68,0,20.24,4.84,20.24,21.12V105.9c0,4.29-1.76,8-8,8s-8-3.74-8-8V77.85c0-6.49-3.19-11.11-10.12-11.11a12.47,12.47,0,0,0-12.21,12.65V105.9c0,4.29-1.76,8-8,8s-8-3.74-8-8Z"/><path class="cls-1" d="M289.57,97.1h.22l9.79-36.41c1.1-4.07,3.3-7.15,7.7-7.15a7.84,7.84,0,0,1,8.25,7.26,15.66,15.66,0,0,1-1.21,5.06l-18.59,52.69c-3.85,11-8.25,16.72-18.37,16.72-7.15,0-10.12-3.52-10.12-7.37,0-4.29,3.08-6.49,7.37-6.49h1.65c2.09,0,4.4-.11,5.61-5.06L265.15,68.72c-1.32-3.85-2-5.61-2-7.48a7.68,7.68,0,0,1,7.81-7.7,8.06,8.06,0,0,1,8.25,6.05Z"/><path class="cls-1" d="M326.86,65.53h-2.75c-4.51,0-6.38-1.76-6.38-5.28S319.6,55,324.11,55h2.75V45.18c0-5.28,3.19-8,8-8s8,2.75,8,8V55h4.84c4.73,0,7.26,1.43,7.26,5.28s-2.53,5.28-7.26,5.28h-4.84V97.65c0,2.42,1.32,3.74,4.18,3.74h2.31c3.52,0,5.61,2,5.61,5.39,0,4.62-4,7.15-11.66,7.15-11.66,0-16.5-4.84-16.5-14.3Z"/><path class="cls-1" d="M371.74,31.43a8.36,8.36,0,1,1-8.36,8.36A8.36,8.36,0,0,1,371.74,31.43Zm-8,30.14c0-4.29,1.76-8,8-8s8,3.74,8,8V105.9c0,4.29-1.76,8-8,8s-8-3.74-8-8Z"/><path class="cls-1" d="M419.92,53.54c13.42,0,23.43,7.59,23.43,15.07,0,4.62-3.41,6.93-7.48,6.93-7.59,0-4.84-9.46-16.39-9.46-6.27,0-13.64,4.29-13.64,18.81,0,10,4.73,16.5,13.53,16.5,11.22,0,8.8-10.34,17.27-10.34a6.36,6.36,0,0,1,6.71,6.16c0,7-7.92,16.72-24.42,16.72-19.8,0-29.15-12.21-29.15-29C389.78,66.41,400.23,53.54,419.92,53.54Z"/><path class="cls-1" d="M472.94,53.54c12.21,0,24.53,4.84,24.53,12.21,0,3.74-2.53,7-6.71,7-6.27,0-6.49-7.37-16.61-7.37-5.61,0-9.24,1.54-9.24,5,0,3.74,3.63,4.62,8.58,5.72l6.71,1.54c9.13,2.09,20,5.94,20,17.16,0,13.09-12.65,19.14-24.75,19.14-14.52,0-26.62-6.49-26.62-14.41,0-3.52,2-6.71,6.49-6.71,6.93,0,7.59,9.9,19.47,9.9,5.72,0,9.35-2.53,9.35-5.83,0-4.07-3.52-4.73-9.24-6.16l-9.46-2.31c-9.35-2.31-16.61-6.16-16.61-16.94C448.85,58.38,461.83,53.54,472.94,53.54Z"/><path class="cls-2" d="M302.71,125.47a1.64,1.64,0,0,1,1.76-1.1h.86a1.79,1.79,0,0,1,1.94,1.32l4.36,12.13a5,5,0,0,1,.35,1.38,1.65,1.65,0,0,1-1.7,1.59,1.54,1.54,0,0,1-1.62-1l-.93-2.64h-5.81L301,139.8a1.47,1.47,0,0,1-1.61,1,1.54,1.54,0,0,1-1.67-1.59,5,5,0,0,1,.35-1.38Zm2.18,2.82h0l-2.14,6.36h4.23Z"/><path class="cls-2" d="M313.34,130.31c0-1,.44-1.6,1.45-1.6s1.45.63,1.45,1.6v.42h.05a4.6,4.6,0,0,1,3.89-2c1.94,0,4.05,1,4.05,4.22v6.25a1.61,1.61,0,1,1-3.21,0v-5.61c0-1.3-.64-2.22-2-2.22a2.49,2.49,0,0,0-2.45,2.53v5.3a1.61,1.61,0,1,1-3.21,0Z"/><path class="cls-2" d="M337.34,137.4a11.39,11.39,0,0,0,.33,2.15,1.35,1.35,0,0,1-1.45,1.24,1.73,1.73,0,0,1-1.89-1.87,5.56,5.56,0,0,1-4.4,1.87,3.44,3.44,0,0,1-3.63-3.28c0-2.67,2-3.41,4.49-3.7l1.95-.22c.77-.09,1.39-.26,1.39-1.19s-.95-1.32-2-1.32c-2.38,0-2.45,1.76-3.72,1.76a1.28,1.28,0,0,1-1.37-1.23c0-1.28,1.81-2.9,5.11-2.9,3.08,0,5.21,1,5.21,3.3Zm-3.21-2.31a2.8,2.8,0,0,1-1.39.5l-1.16.18c-1.34.2-2.07.62-2.07,1.58,0,.73.68,1.32,1.78,1.32a2.57,2.57,0,0,0,2.84-2.33Z"/><path class="cls-2" d="M340.18,126a1.61,1.61,0,1,1,3.21,0v13.2a1.61,1.61,0,1,1-3.21,0Z"/><path class="cls-2" d="M350.28,137.42h0l2-7.28c.22-.82.66-1.43,1.54-1.43a1.56,1.56,0,0,1,1.65,1.45,3.26,3.26,0,0,1-.24,1l-3.72,10.54c-.77,2.2-1.65,3.34-3.67,3.34-1.43,0-2-.7-2-1.47s.62-1.3,1.48-1.3h.33c.41,0,.88,0,1.12-1l-3.35-9.53a5,5,0,0,1-.39-1.49,1.53,1.53,0,0,1,1.56-1.54,1.61,1.61,0,0,1,1.65,1.21Z"/><path class="cls-2" d="M357.74,131.1h-.55c-.91,0-1.28-.35-1.28-1s.37-1.06,1.28-1.06h.55v-2a1.61,1.61,0,0,1,3.21,0v2h1c.94,0,1.45.29,1.45,1.06s-.51,1-1.45,1h-1v6.43c0,.48.26.75.83.75h.47a1,1,0,0,1,1.12,1.08c0,.92-.79,1.43-2.33,1.43-2.34,0-3.3-1-3.3-2.86Z"/><path class="cls-2" d="M366.71,124.28A1.68,1.68,0,1,1,365,126,1.67,1.67,0,0,1,366.71,124.28Zm-1.6,6a1.61,1.61,0,0,1,3.21,0v8.87a1.61,1.61,0,1,1-3.21,0Z"/><path class="cls-2" d="M376.35,128.71c2.68,0,4.69,1.51,4.69,3a1.37,1.37,0,0,1-1.5,1.39c-1.52,0-1-1.9-3.28-1.9-1.25,0-2.73.86-2.73,3.77,0,2,1,3.3,2.71,3.3,2.24,0,1.76-2.07,3.45-2.07a1.27,1.27,0,0,1,1.35,1.23c0,1.41-1.59,3.35-4.89,3.35-4,0-5.83-2.45-5.83-5.81C370.32,131.28,372.41,128.71,376.35,128.71Z"/><path class="cls-2" d="M387,128.71c2.44,0,4.91,1,4.91,2.44a1.34,1.34,0,0,1-1.34,1.41c-1.26,0-1.3-1.48-3.33-1.48-1.12,0-1.84.31-1.84,1s.72.93,1.71,1.15l1.34.31c1.83.41,4,1.18,4,3.43,0,2.62-2.53,3.83-5,3.83-2.91,0-5.33-1.3-5.33-2.89a1.24,1.24,0,0,1,1.3-1.34c1.39,0,1.52,2,3.9,2,1.14,0,1.87-.5,1.87-1.16,0-.82-.71-.95-1.85-1.24l-1.89-.46c-1.87-.46-3.33-1.23-3.33-3.39C382.13,129.67,384.73,128.71,387,128.71Z"/><path class="cls-2" d="M411.86,139.27c0,1-.47,1.52-1.46,1.52a1.33,1.33,0,0,1-1.45-1.52v-.51h0a3.37,3.37,0,0,1-3.39,2c-2.68,0-5-2-5-6.12,0-3.08,1.56-6,4.95-6a3.54,3.54,0,0,1,3.17,1.62h0V126a1.61,1.61,0,0,1,3.22,0Zm-5.61-1c1.87,0,2.57-1.67,2.57-3.5,0-1.65-.62-3.59-2.57-3.57s-2.56,2.07-2.56,3.57C403.69,136.67,404.53,138.23,406.25,138.28Z"/><path class="cls-2" d="M414.47,130.2a1.46,1.46,0,1,1,2.91,0v1.23h0c.37-1.34,1.1-2.72,2.66-2.72a1.62,1.62,0,0,1,1.76,1.56,1.47,1.47,0,0,1-1.58,1.61h-.57c-1.3,0-2,.9-2,3.56v3.74a1.61,1.61,0,0,1-3.22,0Z"/><path class="cls-2" d="M424.92,124.28a1.68,1.68,0,1,1-1.67,1.68A1.68,1.68,0,0,1,424.92,124.28Zm-1.6,6a1.61,1.61,0,0,1,3.21,0v8.87a1.61,1.61,0,1,1-3.21,0Z"/><path class="cls-2" d="M428.22,131.19a3.18,3.18,0,0,1-.2-.81,1.54,1.54,0,0,1,1.57-1.67,1.6,1.6,0,0,1,1.6,1.34l2.16,7.26h0l2.16-7.26a1.63,1.63,0,0,1,1.61-1.34,1.54,1.54,0,0,1,1.56,1.67,3.18,3.18,0,0,1-.2.81l-3,8.45c-.3.86-.5,1.15-2.11,1.15s-1.8-.29-2.11-1.15Z"/><path class="cls-2" d="M442.77,135.35a2.77,2.77,0,0,0,3,2.93c2.42,0,2.42-1.59,3.71-1.59a1.33,1.33,0,0,1,1.32,1.26c0,1.93-3.1,2.84-5,2.84-4.49,0-6.19-3-6.19-5.83,0-3.75,2.27-6.25,6.08-6.25s5.8,2.61,5.8,5.25c0,1.11-.33,1.39-1.4,1.39Zm5.63-1.85a2.76,2.76,0,0,0-2.71-2.55,2.88,2.88,0,0,0-2.92,2.55Z"/><path class="cls-2" d="M453.39,130.31c0-1,.44-1.6,1.45-1.6s1.45.63,1.45,1.6v.42h0a4.6,4.6,0,0,1,3.89-2c1.94,0,4,1,4,4.22v6.25a1.61,1.61,0,1,1-3.21,0v-5.61c0-1.3-.64-2.22-2-2.22a2.49,2.49,0,0,0-2.45,2.53v5.3a1.61,1.61,0,1,1-3.21,0Z"/><path class="cls-2" d="M473.34,130.22a1.31,1.31,0,0,1,1.46-1.51,1.33,1.33,0,0,1,1.45,1.51v.51h0a3.38,3.38,0,0,1,3.39-2c2.69,0,5,2,5,6.11,0,3.08-1.56,6-5,6a3.45,3.45,0,0,1-3.17-1.63h0v4.29a1.61,1.61,0,0,1-3.22,0Zm5.62,1c-1.88,0-2.58,1.68-2.58,3.5,0,1.65.62,3.59,2.58,3.57s2.55-2.07,2.55-3.57C481.51,132.82,480.67,131.26,479,131.21Z"/><path class="cls-2" d="M486.85,126a1.61,1.61,0,1,1,3.21,0v13.2a1.61,1.61,0,1,1-3.21,0Z"/><path class="cls-2" d="M503.35,137.4a11.39,11.39,0,0,0,.33,2.15,1.35,1.35,0,0,1-1.45,1.24,1.74,1.74,0,0,1-1.89-1.87,5.55,5.55,0,0,1-4.4,1.87,3.44,3.44,0,0,1-3.63-3.28c0-2.67,2-3.41,4.49-3.7l2-.22c.77-.09,1.38-.26,1.38-1.19s-.94-1.32-2-1.32c-2.38,0-2.45,1.76-3.72,1.76a1.27,1.27,0,0,1-1.36-1.23c0-1.28,1.8-2.9,5.1-2.9,3.08,0,5.21,1,5.21,3.3Zm-3.21-2.31a2.8,2.8,0,0,1-1.38.5l-1.17.18c-1.34.2-2.07.62-2.07,1.58,0,.73.68,1.32,1.78,1.32a2.57,2.57,0,0,0,2.84-2.33Z"/><path class="cls-2" d="M506,130.31c0-1,.45-1.6,1.46-1.6s1.45.63,1.45,1.6v.42h0a4.61,4.61,0,0,1,3.9-2c1.93,0,4,1,4,4.22v6.25a1.61,1.61,0,0,1-3.22,0v-5.61c0-1.3-.63-2.22-2-2.22a2.49,2.49,0,0,0-2.44,2.53v5.3a1.61,1.61,0,0,1-3.22,0Z"/><path class="cls-2" d="M519.35,130.31c0-1,.44-1.6,1.45-1.6s1.45.63,1.45,1.6v.42h0a4.61,4.61,0,0,1,3.9-2c1.94,0,4,1,4,4.22v6.25a1.61,1.61,0,1,1-3.21,0v-5.61a1.94,1.94,0,0,0-2-2.22,2.49,2.49,0,0,0-2.44,2.53v5.3a1.61,1.61,0,1,1-3.21,0Z"/><path class="cls-2" d="M534.46,124.28a1.68,1.68,0,1,1-1.67,1.68A1.68,1.68,0,0,1,534.46,124.28Zm-1.61,6a1.61,1.61,0,0,1,3.22,0v8.87a1.61,1.61,0,0,1-3.22,0Z"/><path class="cls-2" d="M538.68,130.31c0-1,.44-1.6,1.46-1.6s1.45.63,1.45,1.6v.42h0a4.61,4.61,0,0,1,3.9-2c1.93,0,4.05,1,4.05,4.22v6.25a1.61,1.61,0,0,1-3.22,0v-5.61c0-1.3-.64-2.22-2-2.22a2.49,2.49,0,0,0-2.44,2.53v5.3a1.61,1.61,0,0,1-3.22,0Z"/><path class="cls-2" d="M562.91,139.55c0,3.88-2.38,5.66-5.72,5.66-2.45,0-4.84-1.1-4.84-2.66a1.33,1.33,0,0,1,1.32-1.37c1.34,0,1.6,1.65,3.41,1.65s2.75-1,2.75-3.52v-.66h-.05a3.93,3.93,0,0,1-3.1,1.54c-3.39,0-5.15-2.2-5.15-5.37,0-4.15,2.33-6.11,5-6.11a3.61,3.61,0,0,1,3.39,1.91h0v-.4a1.33,1.33,0,0,1,1.46-1.51c1,0,1.45.52,1.45,1.51Zm-5.61-1.73c1.43,0,2.53-.95,2.53-3.24s-.88-3.37-2.38-3.37c-2.07,0-2.71,1.52-2.71,3.5C554.74,136.19,555.47,137.82,557.3,137.82Z"/><path class="cls-3" d="M8,114a8,8,0,0,1-8-8V64.64A28.68,28.68,0,0,1,28.64,36H56a8,8,0,0,1,0,16H28.64A12.65,12.65,0,0,0,16,64.64V106A8,8,0,0,1,8,114Z"/><path class="cls-3" d="M51.5,89H41a8,8,0,0,1,0-16H51.5a28.5,28.5,0,0,0,0-57H10A8,8,0,0,1,10,0H51.5a44.5,44.5,0,0,1,0,89Z"/></g></g></svg>